<svg width="18" height="15" fill="none" xmlns="http://www.w3.org/2000/svg"><path fill-rule="evenodd" clip-rule="evenodd" d="M0 5.357C0 2.4 2.878 0 6.429 0c3.137 0 5.746 1.874 6.311 4.351a7.777 7.777 0 0 0-.954-.065c-3.546 0-6.429 2.403-6.429 5.357 0 .344.043.68.118 1.006a7.3 7.3 0 0 1-1.559-.388l-2.309.989.848-1.695C.962 8.575 0 7.063 0 5.357zm3.482-2.143a.804.804 0 1 0 1.608 0 .804.804 0 0 0-1.608 0zm4.286 0a.804.804 0 1 0 1.608 0 .804.804 0 0 0-1.608 0zm4.018 2.143c2.958 0 5.357 1.92 5.357 4.286 0 1.37-.819 2.577-2.07 3.36L16.07 15l-2.887-1.238a6.545 6.545 0 0 1-1.398.167c-2.958 0-5.357-1.92-5.357-4.286 0-2.367 2.399-4.286 5.357-4.286zM9.375 8.571a.804.804 0 1 0 1.608 0 .804.804 0 0 0-1.608 0zm3.214 0a.804.804 0 1 0 1.608 0 .804.804 0 0 0-1.608 0z" fill="#282828"/></svg>